<svg width="40" height="40" viewBox="0 0 40 40" fill="none" xmlns="http://www.w3.org/2000/svg">
<g id="Frame">
<rect width="40" height="40" fill="#C4D294"/>
<path id="Vector" d="M20 33.3359H35" stroke="#231F20" stroke-width="2" stroke-linecap="round" stroke-linejoin="round"/>
<path id="Vector_2" d="M27.5 5.83241C28.163 5.16937 29.0623 4.79688 30 4.79688C30.4643 4.79688 30.924 4.88832 31.353 5.066C31.7819 5.24368 32.1717 5.5041 32.5 5.83241C32.8283 6.16071 33.0887 6.55047 33.2664 6.97942C33.4441 7.40837 33.5355 7.86812 33.5355 8.33241C33.5355 8.7967 33.4441 9.25645 33.2664 9.6854C33.0887 10.1143 32.8283 10.5041 32.5 10.8324L11.6667 31.6657L5 33.3324L6.66667 26.6657L27.5 5.83241Z" stroke="#231F20" stroke-width="2" stroke-linecap="round" stroke-linejoin="round"/>
<path id="Vector_3" d="M25 8.33594L30 13.3359" stroke="#231F20" stroke-width="2" stroke-linecap="round" stroke-linejoin="round"/>
</g>
</svg>
