<svg width="40" height="40" viewBox="0 0 40 40" fill="none" xmlns="http://www.w3.org/2000/svg">
<g id="trash-01">
<rect width="40" height="40" fill="#C4D294"/>
<path id="Icon" d="M26.6667 10.0026V8.66927C26.6667 6.80243 26.6667 5.86901 26.3034 5.15597C25.9838 4.52876 25.4738 4.01883 24.8466 3.69925C24.1336 3.33594 23.2002 3.33594 21.3333 3.33594H18.6667C16.7998 3.33594 15.8664 3.33594 15.1534 3.69925C14.5262 4.01883 14.0162 4.52876 13.6966 5.15597C13.3333 5.86901 13.3333 6.80243 13.3333 8.66927V10.0026M16.6667 19.1693V27.5026M23.3333 19.1693V27.5026M5 10.0026H35M31.6667 10.0026V28.6693C31.6667 31.4695 31.6667 32.8697 31.1217 33.9392C30.6423 34.88 29.8774 35.6449 28.9366 36.1243C27.8671 36.6693 26.4669 36.6693 23.6667 36.6693H16.3333C13.5331 36.6693 12.1329 36.6693 11.0634 36.1243C10.1226 35.6449 9.35767 34.88 8.8783 33.9392C8.33333 32.8697 8.33333 31.4695 8.33333 28.6693V10.0026" stroke="#231F20" stroke-width="2" stroke-linecap="round" stroke-linejoin="round"/>
</g>
</svg>
