<svg width="77" height="67" viewBox="0 0 77 67" fill="none" xmlns="http://www.w3.org/2000/svg">
<path d="M76 66V1H1V46.2564L20.2569 66H76Z" stroke="black" stroke-linecap="square"/>
<g clip-path="url(#clip0_217_117)">
<path d="M46.7531 51H31.2447C25.5955 51 21 46.4045 21 40.7531V25.2447C21 19.5955 25.5955 15 31.2469 15H46.7553C52.4045 15 57.0023 19.5955 57.0023 25.2469V40.7553C57 46.4045 52.4022 51 46.7531 51ZM31.2469 18.0857C27.2991 18.0857 24.0857 21.2969 24.0857 25.2469V40.7553C24.0857 44.7031 27.2969 47.9166 31.2469 47.9166H46.7553C50.7031 47.9166 53.9166 44.7054 53.9166 40.7553V25.2469C53.9166 21.2991 50.7054 18.0857 46.7553 18.0857H31.2469Z" fill="#231F20"/>
<path d="M38.9986 42.2187C33.9151 42.2187 29.7803 38.0839 29.7803 33.0004C29.7803 27.9168 33.9151 23.782 38.9986 23.782C44.0822 23.782 48.217 27.9168 48.217 33.0004C48.217 38.0839 44.0822 42.2187 38.9986 42.2187ZM38.9986 26.87C35.6164 26.87 32.866 29.6204 32.866 33.0026C32.866 36.3848 35.6164 39.1353 38.9986 39.1353C42.3808 39.1353 45.1313 36.3848 45.1313 33.0026C45.1313 29.6204 42.3808 26.87 38.9986 26.87Z" fill="#231F20"/>
<path d="M50.8274 23.2543C50.8274 24.479 49.8354 25.4688 48.6129 25.4688C47.3882 25.4688 46.3984 24.4767 46.3984 23.2543C46.3984 22.0319 47.3905 21.0398 48.6129 21.0398C49.8354 21.0375 50.8274 22.0296 50.8274 23.2543Z" fill="#231F20"/>
</g>
<defs>
<clipPath id="clip0_217_117">
<rect width="36" height="36" fill="white" transform="translate(21 15)"/>
</clipPath>
</defs>
</svg>
