<svg width="77" height="67" viewBox="0 0 77 67" fill="none" xmlns="http://www.w3.org/2000/svg">
<path d="M76 66V1H1V46.2564L20.2569 66H76Z" stroke="black" stroke-linecap="square"/>
<path fill-rule="evenodd" clip-rule="evenodd" d="M49.9054 23.5696C51.1116 23.8829 52.0525 24.7999 52.3787 25.9711C53.2318 29.3122 53.1762 35.629 52.3966 39.0224C52.074 40.1935 51.1295 41.1071 49.9234 41.4238C46.5181 42.2417 31.2664 42.1408 28.0583 41.4238C26.8521 41.1106 25.9112 40.1935 25.585 39.0224C24.7803 35.8379 24.8359 29.1034 25.5671 25.9885C25.8897 24.8173 26.8342 23.9037 28.0404 23.587C32.5926 22.6647 48.2853 22.9623 49.9054 23.5696ZM37 29L44 32.5L37 36V29Z" fill="black"/>
</svg>
