<svg width="27" height="39" viewBox="0 0 27 39" fill="none" xmlns="http://www.w3.org/2000/svg">
<g clipPath="url(#clip0_7_3513)">
<path d="M26.8799 10.4242L26.6649 9.34188C26.471 8.37027 26.0332 7.45179 25.0347 7.10079C24.7137 6.98866 24.3507 6.94137 24.1064 6.70931C23.8587 6.47677 23.7874 6.11455 23.7302 5.77963C23.6242 5.16536 23.5265 4.5511 23.4176 3.93829C23.3247 3.41032 23.2515 2.81702 23.0106 2.33438C22.6931 1.68453 22.0384 1.30427 21.3886 1.05368C21.055 0.929369 20.7149 0.824066 20.369 0.738264C18.7407 0.310716 17.0308 0.15325 15.358 0.0620848C13.3496 -0.0480929 11.3363 -0.0144546 9.33278 0.163C7.84272 0.298041 6.27106 0.461845 4.85428 0.975683C4.33642 1.16435 3.80244 1.39153 3.40818 1.78983C2.92452 2.28075 2.76818 3.04127 3.11994 3.65212C3.37056 4.08601 3.7956 4.39314 4.24701 4.59449C4.83327 4.85774 5.44737 5.05616 6.07564 5.18925C7.8261 5.57585 9.64056 5.72698 11.4286 5.79035C13.4121 5.87177 15.3971 5.80644 17.3728 5.59876C17.8599 5.54513 18.3465 5.48029 18.8321 5.40522C19.4051 5.31747 19.7735 4.57157 19.604 4.04993C19.4022 3.42738 18.8599 3.18704 18.2458 3.28113C17.4871 3.40154 16.6825 3.45663 15.9951 3.51855C14.0785 3.64871 12.1551 3.65164 10.2366 3.5283C9.60734 3.48686 8.97907 3.42884 8.35227 3.35425C8.21206 3.33817 8.05914 3.31379 7.93212 3.29575C7.5364 3.23725 7.14409 3.16559 6.75326 3.08466C6.57249 3.04078 6.57249 2.78387 6.75326 2.73999H6.76156C7.21249 2.64249 7.66879 2.56448 8.12607 2.50111H8.12949C8.34299 2.48648 8.55795 2.44894 8.77095 2.42311C10.624 2.23103 12.4883 2.16619 14.3502 2.2281C15.4479 2.25881 16.5437 2.33682 17.6346 2.46211L18.0059 2.51232C18.4408 2.57716 18.8741 2.65516 19.3055 2.74779C19.944 2.88576 20.7628 2.93158 21.0481 3.62872C21.1375 3.85152 21.1786 4.09674 21.2289 4.32928L21.7482 6.741C21.7927 6.94917 21.6593 7.15344 21.4512 7.1978C21.4424 7.19975 21.4336 7.20121 21.4243 7.20268H21.4194C21.3593 7.21243 21.2973 7.21876 21.2372 7.22705C18.6757 7.5532 16.0957 7.7131 13.5133 7.70628C10.9548 7.70384 8.39868 7.53857 5.86117 7.21243C5.63302 7.18464 5.38386 7.14417 5.18209 7.11492C4.65104 7.03692 4.12537 6.93942 3.59774 6.85313C2.95774 6.74734 2.34706 6.80097 1.76911 7.11492C1.29668 7.37477 0.910731 7.7716 0.669878 8.25424C0.419253 8.76759 0.345971 9.32677 0.235071 9.87912C0.122706 10.4315 -0.0517054 11.0282 0.0152255 11.5952C0.156904 12.8188 1.01333 13.8133 2.24642 14.0361C8.3425 15.1218 14.5636 15.3276 20.7184 14.647C21.1497 14.5977 21.5396 14.9073 21.5889 15.3383C21.5953 15.3948 21.5958 15.4519 21.5899 15.5084L21.4741 16.6409L19.8165 32.74C19.7496 33.4065 19.7398 34.0919 19.6128 34.75C19.4139 35.785 18.7124 36.4207 17.6879 36.6528C16.7484 36.8658 15.7909 36.978 14.8284 36.9858C13.76 36.9921 12.695 36.9453 11.627 36.9502C10.4887 36.9565 9.09291 36.8527 8.21548 36.0078C7.44211 35.2634 7.33609 34.1002 7.23008 33.094L6.03949 21.6974L5.51528 16.6697C5.45519 16.0993 5.0497 15.5401 4.41117 15.5679C3.86399 15.5923 3.24207 16.0554 3.30705 16.6711L3.67835 20.2217L5.22362 35.0289C5.46301 37.213 7.1353 38.3893 9.20674 38.7208C10.4149 38.9158 11.6544 38.9548 12.8821 38.9743C14.4552 39.0002 16.0444 39.0606 17.5917 38.7759C19.8844 38.3567 21.606 36.8293 21.8518 34.458C22.4053 29.0432 22.9642 23.6304 23.5192 18.2156L23.8695 14.824C23.9047 14.4788 24.1631 14.1975 24.5046 14.1317C25.1592 14.0049 25.786 13.787 26.2536 13.2898C26.9947 12.4966 27.1427 11.463 26.8804 10.4198V10.4212L26.8799 10.4242ZM24.4728 11.6785C24.2369 11.9013 23.8817 12.0052 23.5314 12.0573C19.5971 12.6409 15.6072 12.9348 11.6304 12.8047C8.78366 12.7072 5.96816 12.3918 3.15072 11.9954C2.87371 11.9564 2.5757 11.9062 2.38516 11.7029C2.02706 11.3192 2.2044 10.549 2.29723 10.0858C2.38174 9.66315 2.54492 9.09617 3.05105 9.03621C3.83908 8.94358 4.75461 9.27655 5.53629 9.39355C6.47576 9.5364 7.41866 9.65194 8.36497 9.73823C12.4038 10.1053 16.5105 10.0468 20.5332 9.51056C21.266 9.41306 21.9974 9.29947 22.7233 9.1693C23.3731 9.0523 24.0913 8.83438 24.4821 9.50422C24.7523 9.96102 24.7884 10.5719 24.7459 11.0872C24.7332 11.3119 24.6345 11.5235 24.4709 11.6785H24.4723H24.4728ZM14.443 18.0162C13.0394 18.6173 11.4467 19.2969 9.38017 19.2969C8.51642 19.2949 7.65707 19.176 6.82507 18.9444L8.25309 33.5761C8.35911 34.8436 9.42072 35.8187 10.6958 35.8187C10.6958 35.8187 12.7199 35.9245 13.396 35.9245C14.124 35.9245 16.3043 35.8187 16.3043 35.8187C17.5794 35.8187 18.6396 34.8436 18.7456 33.5761L20.2762 17.4068C19.5854 17.1577 18.8575 17.027 18.1232 17.0202C16.7782 17.0202 15.6951 17.4819 14.443 18.0162Z" fill="white"/>
</g>
<defs>
<clipPath id="clip0_7_3513">
<rect width="27" height="39" fill="white"/>
</clipPath>
</defs>
</svg>
