<svg width="50" height="52" viewBox="0 0 50 52" fill="none" xmlns="http://www.w3.org/2000/svg">
<g id="image-down">
<path id="Icon" d="M33.3333 11.125L39.5833 17.5M39.5833 17.5L45.8333 11.125M39.5833 17.5V4.75M26.0417 6.875H16.25C12.7497 6.875 10.9995 6.875 9.66256 7.56983C8.48655 8.18103 7.53042 9.15628 6.93121 10.3558C6.25 11.7195 6.25 13.5047 6.25 17.075V34.925C6.25 38.4953 6.25 40.2805 6.93121 41.6442C7.53042 42.8437 8.48655 43.819 9.66256 44.4302C10.9995 45.125 12.7497 45.125 16.25 45.125H35.4167C37.3541 45.125 38.3228 45.125 39.1176 44.9078C41.2744 44.3183 42.9591 42.5999 43.537 40.4C43.75 39.5893 43.75 38.6012 43.75 36.625M21.875 18.5625C21.875 20.9097 20.0095 22.8125 17.7083 22.8125C15.4071 22.8125 13.5417 20.9097 13.5417 18.5625C13.5417 16.2153 15.4071 14.3125 17.7083 14.3125C20.0095 14.3125 21.875 16.2153 21.875 18.5625ZM31.2292 25.8261L13.6066 42.1671C12.6153 43.0862 12.1197 43.5458 12.0759 43.9439C12.0379 44.289 12.1676 44.6312 12.4233 44.8605C12.7183 45.125 13.3881 45.125 14.7277 45.125H34.2833C37.2816 45.125 38.7807 45.125 39.9582 44.6112C41.4363 43.9662 42.614 42.7651 43.2463 41.2573C43.75 40.0563 43.75 38.5272 43.75 35.469C43.75 34.44 43.75 33.9255 43.6397 33.4463C43.5011 32.8442 43.2354 32.2801 42.861 31.7936C42.563 31.4064 42.1691 31.085 41.3814 30.4422L35.5538 25.6869C34.7654 25.0436 34.3712 24.7219 33.9371 24.6084C33.5544 24.5083 33.1518 24.5213 32.7761 24.6457C32.3499 24.7869 31.9763 25.1333 31.2292 25.8261Z" stroke="#231F20" stroke-width="3" stroke-linecap="round" stroke-linejoin="round"/>
</g>
</svg>
