<svg width="30" height="30" viewBox="0 0 30 30" fill="none">
    <path
        d="M13.4287 6.3654C13.9367 6.29029 14.4608 6.25 15.0005 6.25C21.3818 6.25 25.5691 11.8811 26.9759 14.1085C27.1461 14.3781 27.2313 14.5129 27.2789 14.7208C27.3147 14.877 27.3147 15.1233 27.2789 15.2795C27.2312 15.4874 27.1454 15.6231 26.974 15.8945C26.5992 16.4877 26.0277 17.3214 25.2706 18.2256M8.4054 8.3938C5.70281 10.2271 3.86806 12.7742 3.02638 14.1066C2.85536 14.3773 2.76984 14.5127 2.72217 14.7206C2.68637 14.8767 2.68636 15.1231 2.72214 15.2792C2.76979 15.4871 2.85491 15.6219 3.02517 15.8915C4.43193 18.119 8.61927 23.75 15.0005 23.75C17.5735 23.75 19.7899 22.8345 21.611 21.5958M3.75052 3.75L26.2505 26.25M12.3489 12.3483C11.6703 13.027 11.2505 13.9645 11.2505 15C11.2505 17.0711 12.9295 18.75 15.0005 18.75C16.0361 18.75 16.9736 18.3303 17.6522 17.6517"
        stroke="#231F20" stroke-width="2" stroke-linecap="round" stroke-linejoin="round" />
</svg>