<svg width="30" height="30" viewBox="0 0 30 30" fill="none">
    <path
        d="M3.02515 15.8915C2.85492 15.6219 2.7698 15.4871 2.72215 15.2793C2.68637 15.1231 2.68637 14.8769 2.72215 14.7207C2.7698 14.5129 2.85492 14.3781 3.02515 14.1085C4.43191 11.8811 8.61925 6.25 15.0005 6.25C21.3818 6.25 25.5691 11.8811 26.9759 14.1085C27.1461 14.3781 27.2312 14.5129 27.2789 14.7207C27.3146 14.8769 27.3146 15.1231 27.2789 15.2793C27.2312 15.4871 27.1461 15.6219 26.9759 15.8915C25.5691 18.1189 21.3818 23.75 15.0005 23.75C8.61925 23.75 4.43191 18.1189 3.02515 15.8915Z"
        stroke="#231F20" stroke-width="2" stroke-linecap="round" stroke-linejoin="round" />
    <path
        d="M15.0005 18.75C17.0716 18.75 18.7505 17.0711 18.7505 15C18.7505 12.9289 17.0716 11.25 15.0005 11.25C12.9294 11.25 11.2505 12.9289 11.2505 15C11.2505 17.0711 12.9294 18.75 15.0005 18.75Z"
        stroke="#231F20" stroke-width="2" stroke-linecap="round" stroke-linejoin="round" />
</svg>