<svg xmlns="http://www.w3.org/2000/svg" version="1.1" xmlns:xlink="http://www.w3.org/1999/xlink" xmlns:svgjs="http://svgjs.com/svgjs" width="43" height="43"><svg width="43" height="43" viewBox="0 0 43 43" fill="none" xmlns="http://www.w3.org/2000/svg">
<path fill-rule="evenodd" clip-rule="evenodd" d="M23.6167 5.79942C31.5009 6.54131 37.7666 12.6439 38.4701 20.2978H41C41.8284 20.2978 42.5 20.9694 42.5 21.7978C42.5 22.6263 41.8284 23.2978 41 23.2978H38.4579C37.6977 30.8881 31.4683 36.9239 23.6319 37.6685V40.9596C23.6319 41.832 22.9057 42.5352 22.0047 42.5352C21.1036 42.5352 20.3774 41.8283 20.3774 40.9596V37.6722C12.5361 36.9343 6.29576 30.8907 5.536 23.2978H2C1.17157 23.2978 0.5 22.6263 0.5 21.7978C0.5 20.9694 1.17157 20.2978 2 20.2978H5.52397C6.22662 12.6476 12.4818 6.54822 20.3622 5.79942V2.11075C20.3622 1.23829 21.0884 0.535156 21.9895 0.535156C22.8905 0.535156 23.6167 1.24197 23.6167 2.11075V5.79942ZM22.2898 15.9745C23.0426 15.8383 23.6129 15.1978 23.6129 14.4284V8.89172C29.7038 9.60589 34.5437 14.3032 35.2623 20.2044H29.5821C28.7647 20.2044 28.0955 20.786 27.9815 21.548H22.2898V15.9745ZM20.3622 8.8954V14.4284C20.3622 15.2015 20.9401 15.842 21.7005 15.9745V21.548H15.9899C15.872 20.7897 15.2066 20.208 14.3892 20.208H8.72419C9.44277 14.3106 14.2751 9.61325 20.3622 8.89172V8.8954ZM20.3622 34.5762C14.3094 33.8583 9.49599 29.2088 8.73939 23.3519H14.393C15.1686 23.3519 15.8188 22.8218 15.9785 22.1186H21.7043V27.567C20.9439 27.6995 20.366 28.34 20.366 29.1131V34.5762H20.3622ZM23.6129 34.5725V29.1094C23.6129 28.34 23.0426 27.7032 22.2898 27.5633V22.1113H27.9967C28.1563 22.8181 28.8065 23.3482 29.5821 23.3482H35.2509C34.4905 29.2088 29.6734 33.8583 23.6129 34.5725Z" fill="#1D1D1B"></path>
</svg><style>@media (prefers-color-scheme: light) { :root { filter: contrast(1) brightness(0.7); } }
</style></svg>