<svg width="36" height="36" viewBox="0 0 36 36" fill="none" xmlns="http://www.w3.org/2000/svg">
<g clip-path="url(#clip0_1_90)">
<path d="M25.7531 36H10.2447C4.5955 36 0 31.4045 0 25.7531V10.2447C0 4.5955 4.5955 0 10.2469 0H25.7553C31.4045 0 36.0023 4.5955 36.0023 10.2469V25.7553C36 31.4045 31.4022 36 25.7531 36ZM10.2469 3.08571C6.29915 3.08571 3.08571 6.29686 3.08571 10.2469V25.7553C3.08571 29.7031 6.29686 32.9166 10.2469 32.9166H25.7553C29.7031 32.9166 32.9166 29.7054 32.9166 25.7553V10.2469C32.9166 6.29914 29.7054 3.08571 25.7553 3.08571H10.2469Z" fill="#231F20"/>
<path d="M17.9986 27.2187C12.9151 27.2187 8.78027 23.0839 8.78027 18.0004C8.78027 12.9168 12.9151 8.78198 17.9986 8.78198C23.0822 8.78198 27.217 12.9168 27.217 18.0004C27.217 23.0839 23.0822 27.2187 17.9986 27.2187ZM17.9986 11.87C14.6164 11.87 11.866 14.6204 11.866 18.0026C11.866 21.3848 14.6164 24.1353 17.9986 24.1353C21.3808 24.1353 24.1313 21.3848 24.1313 18.0026C24.1313 14.6204 21.3808 11.87 17.9986 11.87Z" fill="#231F20"/>
<path d="M29.8276 8.25431C29.8276 9.47901 28.8356 10.4688 27.6131 10.4688C26.3884 10.4688 25.3986 9.47673 25.3986 8.25431C25.3986 7.03188 26.3907 6.0398 27.6131 6.0398C28.8356 6.03752 29.8276 7.0296 29.8276 8.25431Z" fill="#231F20"/>
</g>
<defs>
<clipPath id="clip0_1_90">
<rect width="36" height="36" fill="white"/>
</clipPath>
</defs>
</svg>
