<svg width="170" height="76" viewBox="0 0 170 76" fill="none" xmlns="http://www.w3.org/2000/svg">
<g id="logo" clip-path="url(#clip0_365_1219)">
<path id="Vector" d="M21.4853 11.933V8.7666H0V33.6925H21.4853V30.5298H3.26594V22.8495H20.0823V19.6869H3.26594V11.933H21.4853Z" fill="#76871E"/>
<path id="Vector_2" d="M49.1563 33.6925V8.7666H45.9284V29.1565L30.1614 8.7666H26.3062V33.6925H29.5759V13.2584L45.3429 33.6925H49.1563Z" fill="#76871E"/>
<path id="Vector_3" d="M77.0255 20.3864H66.7372V23.5491H73.7975V30.5298H57.445V11.933H73.7975V14.6501H77.0255V10.8505L74.9344 8.7666H56.2664L54.1753 10.8505V31.6785L56.255 33.6925H74.9458L77.0255 31.6785V20.3864Z" fill="#76871E"/>
<path id="Vector_4" d="M112.049 19.683H92.2142V11.9291H110.437V8.7627H88.9482V33.6923H92.2142V22.8493H112.049V19.683Z" fill="#76871E"/>
<path id="Vector_5" d="M170 20.9054V10.9682L167.909 8.88428H147.146V19.6941H143.922V22.8457H147.146V33.8138H150.412V22.8457H159.221L166.768 28.8876V33.8138H169.996V27.2013L164.544 22.8457H167.78L169.996 20.9017L170 20.9054ZM166.772 19.683H150.416V12.0506H166.772V19.683Z" fill="#76871E"/>
<g id="Group">
<path id="Vector_6" d="M6.45204 44.7671V69.7519H22.5308V44.7671H28.9334V72.9219L25.7549 75.9999H3.17849L0 72.9219V44.7671H6.45204Z" fill="#1D1D1B"/>
<path id="Vector_7" d="M33.5947 75.9999V54.1815L43.2253 44.7671H62.5319V75.9999H56.1293V66.6739H40.0506V75.9999H33.5985H33.5947ZM56.1255 60.4295V51.0151H46.4494L40.0468 57.3073V60.4295H56.1255Z" fill="#1D1D1B"/>
<path id="Vector_8" d="M89.9712 75.9999V72.9219L86.7471 69.7556L83.523 66.6776H73.8925V76.0036H67.4404V44.7671H93.1954L96.3738 47.9335V63.548L93.1954 66.6702L96.3738 69.7482V75.9962H89.9712V75.9999ZM89.9712 60.4295V51.0151H73.8925V60.4295H89.9712Z" fill="#1D1D1B"/>
<path id="Vector_9" d="M101.24 75.9999V44.7671H107.692L118.935 59.892L130.36 44.7671H136.58V75.9999H130.128V54.9399L121.695 66.9427H116.304L107.688 54.9399V75.9999H101.236H101.24Z" fill="#1D1D1B"/>
<path id="Vector_10" d="M152.347 75.9999V64.2218L141.059 56.4127V44.7671H147.511V53.7802L155.484 59.0452L163.594 53.7802V44.7671H169.996V56.4127L158.754 64.2218V75.9999H152.351H152.347Z" fill="#1D1D1B"/>
</g>
<path id="Vector_11" d="M144.066 21.2036C144.066 12.8863 137.519 6.0529 129.147 5.26499V1.57582C129.147 0.706908 128.421 0 127.52 0C126.619 0 125.893 0.703227 125.893 1.57582V5.26499C117.524 6.06027 110.989 12.89 110.989 21.2036C110.989 29.5171 117.536 36.3542 125.908 37.1421V40.43C125.908 41.2989 126.634 42.0058 127.535 42.0058C128.436 42.0058 129.162 41.3026 129.162 40.43V37.1385C137.531 36.3432 144.066 29.5134 144.066 21.1999V21.2036ZM127.82 15.4415C128.573 15.3053 129.143 14.6647 129.143 13.8952V8.35772C135.234 9.07199 140.074 13.77 140.793 19.6719H135.113C134.295 19.6719 133.626 20.2537 133.512 21.0158H127.82V15.4378V15.4415ZM125.893 8.3614V13.8952C125.893 14.6683 126.471 15.309 127.231 15.4415V21.0158H121.52C121.403 20.2573 120.737 19.6756 119.92 19.6756H114.255C114.973 13.7773 119.806 9.07935 125.893 8.35772V8.3614ZM125.893 34.0457C119.84 33.3278 115.027 28.6776 114.27 22.8199H119.924C120.699 22.8199 121.349 22.2897 121.509 21.5865H127.235V27.0356C126.474 27.1681 125.897 27.8087 125.897 28.5819V34.0457H125.893ZM129.143 34.0457V28.5782C129.143 27.8087 128.573 27.1718 127.82 27.0319V21.5791H133.527C133.687 22.286 134.337 22.8162 135.113 22.8162H140.781C140.021 28.6776 135.204 33.3278 129.143 34.042V34.0457Z" fill="#1D1D1B"/>
</g>
<defs>
<clipPath id="clip0_365_1219">
<rect width="170" height="76" fill="white"/>
</clipPath>
</defs>
</svg>
