<svg width="30" height="36" viewBox="0 0 30 36" fill="none" xmlns="http://www.w3.org/2000/svg">
<g clip-path="url(#clip0_7_3507)">
<path opacity="0.8" d="M12.0418 8.13789C12.2229 8.05028 12.4246 8.00151 12.6359 8.00151H21.2609C22.2823 8.00151 23.2349 8.06925 24.1057 8.2115C24.3553 8.25215 24.5973 8.29911 24.8322 8.35285C25.0671 8.40569 25.2954 8.4653 25.5166 8.53124C25.6271 8.5642 25.7359 8.59807 25.8425 8.63375C26.2706 8.77917 26.669 8.94852 27.0353 9.14677C27.467 6.34548 27.0322 4.44061 25.5432 2.71504C23.9028 0.814692 20.9407 0 17.15 0H6.1479C5.37342 0 4.7144 0.573536 4.59272 1.3512L0.012006 30.8946C-0.0790309 31.4781 0.364608 32.0051 0.944135 32.0051H7.73682L11.2757 9.18335C11.3481 8.71549 11.6439 8.33208 12.0413 8.13789H12.0418Z" fill="white"/>
<path opacity="0.5" d="M26.9229 9.80155C25.4726 17.3767 20.5082 19.9965 14.1676 19.9965H10.9391C10.1646 19.9965 9.51047 20.57 9.39012 21.3477L7.26829 35.0281C7.1888 35.538 7.57693 36 8.08407 36H13.8096C14.4873 36 15.0642 35.4982 15.1699 34.8181L15.2258 34.5214L16.3049 27.5667L16.3747 27.1824C16.4803 26.5023 17.0572 26.0006 17.7349 26.0006H18.5915C24.1377 26.0006 28.4808 23.7091 29.7495 17.0823C30.2793 14.3131 30.0053 12.0009 28.6038 10.3764C28.1788 9.88465 27.6512 9.47821 27.0362 9.14673C27.0029 9.36079 26.9665 9.57801 26.9234 9.80201L26.9229 9.80155Z" fill="white"/>
<path d="M25.5174 8.5312C25.2963 8.46526 25.068 8.40565 24.8331 8.35281C24.5982 8.29998 24.3552 8.25301 24.1066 8.21236C23.2353 8.06875 22.2832 8.00146 21.2609 8.00146H12.6368C12.4245 8.00146 12.2225 8.05024 12.0426 8.13875C11.6443 8.33294 11.3494 8.71545 11.277 9.18421L9.44384 21.0036L9.39099 21.3481C9.51134 20.5705 10.1655 19.9969 10.94 19.9969H14.1684C20.509 19.9969 25.4734 17.3781 26.9238 9.80201C26.9669 9.57801 27.0033 9.36079 27.0366 9.14673C26.6694 8.94938 26.2719 8.77913 25.8438 8.63506C25.7372 8.59939 25.6284 8.56416 25.5178 8.53165" fill="white"/>
</g>
<defs>
<clipPath id="clip0_7_3507">
<rect width="30" height="36" fill="white"/>
</clipPath>
</defs>
</svg>
