<svg width="120" height="53" viewBox="0 0 120 53" fill="none" xmlns="http://www.w3.org/2000/svg">
<g id="logo" clip-path="url(#clip0_3990_1744)">
<path id="Vector" d="M15.1661 8.32531V6.11719H0V23.4997H15.1661V21.2942H2.30537V15.9382H14.1757V13.7326H2.30537V8.32531H15.1661Z" fill="#76871E"/>
<path id="Vector_2" d="M34.6998 23.4997V6.11719H32.4213V20.3365L21.2917 6.11719H18.5703V23.4997H20.8784V9.24964L32.008 23.4997H34.6998Z" fill="#76871E"/>
<path id="Vector_3" d="M54.3717 14.2205H47.1094V16.426H52.0932V21.2942H40.5502V8.32531H52.0932V10.2202H54.3717V7.57044L52.8956 6.11719H39.7183L38.2422 7.57044V22.0952L39.7102 23.4997H52.9037L54.3717 22.0952V14.2205Z" fill="#76871E"/>
<path id="Vector_4" d="M79.0957 13.7248H65.0944V8.31749H77.9578V6.10938H62.7891V23.4945H65.0944V15.9329H79.0957V13.7248Z" fill="#76871E"/>
<path id="Vector_5" d="M120.002 14.5785V7.64856L118.526 6.19531H103.87V13.7337H101.594V15.9316H103.87V23.5804H106.175V15.9316H112.393L117.721 20.145V23.5804H119.999V18.969L116.151 15.9316H118.434L119.999 14.5759L120.002 14.5785ZM117.723 13.726H106.178V8.40343H117.723V13.726Z" fill="#76871E"/>
<g id="Group">
<path id="Vector_6" d="M4.55438 31.2188V48.6424H15.9041V31.2188H20.4236V50.853L18.1799 52.9995H2.24364L0 50.853V31.2188H4.55438Z" fill="white"/>
<path id="Vector_7" d="M23.7109 52.9995V37.7841L30.509 31.2188H44.1372V52.9995H39.6177V46.4959H28.268V52.9995H23.7136H23.7109ZM39.615 42.1412V35.5759H32.7848L28.2653 39.9639V42.1412H39.615Z" fill="white"/>
<path id="Vector_8" d="M63.5057 52.9995V50.853L61.2298 48.6449L58.954 46.4984H52.1559V53.0021H47.6016V31.2188H65.7815L68.0252 33.4269V44.316L65.7815 46.4933L68.0252 48.6398V52.997H63.5057V52.9995ZM63.5057 42.1412V35.5759H52.1559V42.1412H63.5057Z" fill="white"/>
<path id="Vector_9" d="M71.4636 52.9995V31.2188H76.018L83.954 41.7664L92.0187 31.2188H96.4094V52.9995H91.855V38.313L85.9024 46.6833H82.0968L76.0153 38.313V52.9995H71.4609H71.4636Z" fill="white"/>
<path id="Vector_10" d="M107.538 52.9995V44.7858L99.5703 39.34V31.2188H104.125V37.5042L109.753 41.1758L115.477 37.5042V31.2188H119.997V39.34L112.061 44.7858V52.9995H107.541H107.538Z" fill="white"/>
</g>
<path id="Vector_11" d="M101.693 14.7867C101.693 8.98653 97.0712 4.2211 91.1615 3.67164V1.09892C91.1615 0.492976 90.6489 0 90.0128 0C89.3768 0 88.8642 0.490408 88.8642 1.09892V3.67164C82.9572 4.22624 78.3438 8.9891 78.3438 14.7867C78.3438 20.5843 82.9652 25.3523 88.8749 25.9018V28.1946C88.8749 28.8006 89.3875 29.2935 90.0236 29.2935C90.6596 29.2935 91.1722 28.8031 91.1722 28.1946V25.8992C97.0792 25.3446 101.693 20.5817 101.693 14.7841V14.7867ZM90.2249 10.7684C90.7562 10.6734 91.1588 10.2267 91.1588 9.69005V5.82841C95.4582 6.32652 98.8747 9.60275 99.3819 13.7186H95.3724C94.7953 13.7186 94.323 14.1243 94.2425 14.6558H90.2249V10.7659V10.7684ZM88.8642 5.83098V9.69005C88.8642 10.2292 89.2721 10.676 89.8089 10.7684V14.6558H85.7778C85.6946 14.1268 85.225 13.7212 84.648 13.7212H80.6491C81.1564 9.60789 84.5674 6.33165 88.8642 5.82841V5.83098ZM88.8642 23.7424C84.5916 23.2417 81.1939 19.9989 80.6598 15.9139H84.6506C85.1981 15.9139 85.6571 15.5441 85.7698 15.0537H89.8116V18.8537C89.2748 18.9462 88.8669 19.3929 88.8669 19.9321V23.7424H88.8642ZM91.1588 23.7424V19.9296C91.1588 19.3929 90.7562 18.9487 90.2249 18.8512V15.0486H94.2532C94.3659 15.5416 94.8249 15.9113 95.3724 15.9113H99.3739C98.8371 19.9989 95.4368 23.2417 91.1588 23.7399V23.7424Z" fill="white"/>
</g>
<defs>
<clipPath id="clip0_3990_1744">
<rect width="120" height="53" fill="white"/>
</clipPath>
</defs>
</svg>
