<svg width="36" height="36" viewBox="0 0 36 36" fill="none" xmlns="http://www.w3.org/2000/svg">
<path d="M7.35951 17.8537C9.80937 16.5665 12.5574 15.4786 15.1109 14.3908C19.5206 12.6178 23.9304 10.8623 28.4101 9.23918C29.2851 8.95551 30.8418 8.68655 31 9.92427C30.9132 11.6638 30.58 13.4033 30.335 15.1254C29.7401 18.9389 29.0401 22.7363 28.3569 26.5324C28.1288 27.8036 26.467 28.4566 25.4003 27.6364C22.8454 25.9972 20.2906 24.3581 17.7707 22.6855C16.949 21.8826 17.7175 20.7292 18.4539 20.1592C20.5538 18.1855 22.7755 16.4956 24.7717 14.4215C25.3149 13.1838 23.7218 14.2208 23.1968 14.538C20.327 16.4287 17.5271 18.4358 14.4823 20.1084C12.9424 20.9273 11.1225 20.2248 9.58258 19.7738C8.19946 19.2386 6.16957 18.6873 7.35951 17.851V17.8537Z" fill="#231F20"/>
</svg>
