<svg width="21" height="20" viewBox="0 0 21 20" fill="none" xmlns="http://www.w3.org/2000/svg">
<path d="M14.6407 20H6.02497C2.88655 20 0.333496 17.4469 0.333496 14.3073V5.69148C0.333496 2.55306 2.88655 0 6.02624 0H14.642C17.7804 0 20.3348 2.55306 20.3348 5.69275V14.3085C20.3335 17.4469 17.7792 20 14.6407 20ZM6.02624 1.71429C3.83302 1.71429 2.04778 3.49826 2.04778 5.69275V14.3085C2.04778 16.5017 3.83175 18.287 6.02624 18.287H14.642C16.8352 18.287 18.6205 16.503 18.6205 14.3085V5.69275C18.6205 3.49952 16.8365 1.71429 14.642 1.71429H6.02624Z" fill="#F9F9F9"/>
<path d="M10.3327 15.1215C7.50854 15.1215 5.21143 12.8244 5.21143 10.0002C5.21143 7.17602 7.50854 4.87891 10.3327 4.87891C13.1569 4.87891 15.4541 7.17602 15.4541 10.0002C15.4541 12.8244 13.1569 15.1215 10.3327 15.1215ZM10.3327 6.59446C8.45374 6.59446 6.92571 8.12249 6.92571 10.0015C6.92571 11.8805 8.45374 13.4085 10.3327 13.4085C12.2117 13.4085 13.7398 11.8805 13.7398 10.0015C13.7398 8.12249 12.2117 6.59446 10.3327 6.59446Z" fill="#F9F9F9"/>
<path d="M16.9044 4.58575C16.9044 5.26615 16.3533 5.81604 15.6741 5.81604C14.9937 5.81604 14.4438 5.26488 14.4438 4.58575C14.4438 3.90663 14.995 3.35547 15.6741 3.35547C16.3533 3.3542 16.9044 3.90536 16.9044 4.58575Z" fill="#F9F9F9"/>
</svg>
