<svg width="22" height="15" viewBox="0 0 22 15" fill="none" xmlns="http://www.w3.org/2000/svg">
<g clip-path="url(#clip0_83_323)">
<path d="M0 14.194L8.93996 7.21881L0.0749774 0.457031C0.0279328 0.558218 0 0.669745 0 0.788658V14.194Z" fill="#F9F9F9"/>
<path d="M0.785682 0C0.785682 0 0.779066 0.000738589 0.775391 0.000738589L10.299 7.26476C10.7114 7.5794 11.2884 7.5794 11.7015 7.26476L21.2244 0.000738589C21.2244 0.000738589 21.2178 0 21.2141 0H0.785682Z" fill="#F9F9F9"/>
<path d="M22 14.194V0.788658C22 0.669745 21.9721 0.558218 21.925 0.457031L13.0601 7.21881L22 14.194Z" fill="#F9F9F9"/>
<path d="M21.2143 14.9991C21.3583 14.9991 21.4921 14.957 21.609 14.8883L12.4118 7.71289L12.1765 7.89237C11.8303 8.15678 11.415 8.28899 10.9997 8.28899C10.5844 8.28899 10.1698 8.15752 9.82357 7.89311L9.58835 7.71363L0.391113 14.8883C0.507255 14.957 0.641038 14.9991 0.785847 14.9991H21.2143Z" fill="#F9F9F9"/>
</g>
<defs>
<clipPath id="clip0_83_323">
<rect width="22" height="15" fill="white"/>
</clipPath>
</defs>
</svg>
