<svg width="21" height="16" viewBox="0 0 21 16" fill="none" xmlns="http://www.w3.org/2000/svg">
<path d="M0.833553 7.45575C2.8437 6.37177 5.09851 5.45568 7.19365 4.53959C10.8119 3.04658 14.4302 1.56822 18.1059 0.201413C18.8238 -0.0374683 20.1011 -0.263955 20.2309 0.778335C20.1597 2.24317 19.8863 3.70801 19.6853 5.1582C19.1971 8.36958 18.6228 11.5674 18.0622 14.7642C17.875 15.8346 16.5115 16.3845 15.6363 15.6938C13.54 14.3134 11.4437 12.9331 9.3761 11.5246C8.70184 10.8485 9.33245 9.87724 9.93664 9.39722C11.6596 7.73519 13.4825 6.31205 15.1205 4.56551C15.5662 3.52322 14.259 4.39649 13.8283 4.66354C11.4735 6.25571 9.17623 7.9459 6.67791 9.3544C5.41439 10.044 3.92114 9.45244 2.65762 9.0727C1.52275 8.62198 -0.142804 8.15774 0.833553 7.45349V7.45575Z" fill="#F9F9F9"/>
</svg>
