<svg width="22" height="22" viewBox="0 0 22 22" fill="none" xmlns="http://www.w3.org/2000/svg">
<g clipPath="url(#clip0_83_319)">
<path d="M5.05186 0.573567C4.86285 0.259606 4.54565 0.0535438 4.1814 0.00892396C4.13273 0.00324508 4.08324 0 4.03457 0C3.72305 0 3.42533 0.122502 3.20062 0.346412L0.462683 3.08445C0.150356 3.39354 -0.0167595 3.82027 0.00189896 4.25673C0.0895128 6.21513 0.826118 11.305 5.75926 16.2424C10.6932 21.1766 15.7846 21.9124 17.7445 22C18.1834 22.0146 18.6044 21.8499 18.9159 21.5392L21.6539 18.8012C21.9127 18.5424 22.036 18.1846 21.9914 17.8203C21.9467 17.4553 21.7407 17.1381 21.4259 16.949L17.2302 14.4333C16.7645 14.155 16.1715 14.2272 15.7878 14.6101L14.5101 15.8847C14.145 16.2489 13.5942 16.339 13.1383 16.1086C12.3879 15.7329 11.0769 14.8706 9.10482 12.8976C7.13107 10.9237 6.26872 9.61354 5.89312 8.8615C5.66192 8.40556 5.75115 7.8539 6.11459 7.49045L7.39229 6.2127C7.77519 5.82978 7.84821 5.23593 7.56914 4.77026L5.05186 0.573567Z" fill="#F9F9F9"/>
</g>
<defs>
<clipPath id="clip0_83_319">
<rect width="22" height="22" fill="white"/>
</clipPath>
</defs>
</svg>
