<?xml version="1.0" standalone="no"?>
<!DOCTYPE svg PUBLIC "-//W3C//DTD SVG 20010904//EN"
 "http://www.w3.org/TR/2001/REC-SVG-20010904/DTD/svg10.dtd">
<svg version="1.0" xmlns="http://www.w3.org/2000/svg"
 width="2048.000000pt" height="2048.000000pt" viewBox="0 0 2048.000000 2048.000000"
 preserveAspectRatio="xMidYMid meet">

<g transform="translate(0.000000,2048.000000) scale(0.100000,-0.100000)"
fill="#DB0000" stroke="none">
<path d="M0 10240 l0 -10240 10240 0 10240 0 0 10240 0 10240 -10240 0 -10240
0 0 -10240z m8972 3691 c341 -59 643 -238 853 -506 35 -44 161 -249 281 -455
121 -207 509 -876 864 -1486 l645 -1110 5 1170 c7 1303 3 1242 76 1465 137
419 494 763 919 886 155 44 263 58 430 52 281 -10 499 -81 736 -238 109 -73
263 -222 335 -325 27 -38 434 -732 904 -1541 l855 -1472 3 1775 2 1774 445 0
445 0 0 -3012 c0 -2908 -1 -3014 -19 -3053 -46 -101 -159 -142 -258 -94 -23
11 -51 33 -62 47 -17 24 -1073 1844 -2441 4207 -255 440 -475 818 -491 840
-93 136 -242 222 -406 232 -161 11 -308 -43 -418 -152 -76 -74 -119 -150 -145
-251 -20 -76 -20 -116 -20 -2433 0 -2269 -1 -2357 -19 -2396 -56 -122 -211
-153 -303 -61 -14 15 -682 1159 -1485 2543 -1274 2198 -1466 2525 -1521 2583
-162 175 -410 220 -627 114 -128 -62 -220 -164 -275 -304 l-25 -65 -5 -2350
c-5 -2240 -6 -2352 -23 -2383 -10 -18 -36 -51 -59 -73 -77 -74 6 -70 -1410
-66 -1333 4 -1297 3 -1546 53 -602 121 -1171 502 -1521 1019 -202 299 -328
610 -392 970 -27 154 -37 493 -19 657 109 1015 840 1861 1824 2113 268 69 264
68 1069 72 l727 4 0 -440 0 -441 -592 0 c-624 0 -768 -7 -920 -40 -593 -133
-1050 -584 -1186 -1175 -166 -716 199 -1454 870 -1764 100 -46 219 -85 348
-114 91 -20 126 -21 922 -24 l827 -4 51 22 c54 23 103 72 129 128 15 33 16
215 21 1996 6 2159 1 1982 67 2180 125 378 413 689 779 841 237 98 503 128
756 85z m-2074 -453 l-3 -443 -745 -6 c-637 -5 -759 -8 -845 -23 -638 -108
-1151 -370 -1582 -807 -146 -149 -225 -245 -332 -404 -423 -630 -571 -1393
-415 -2137 110 -526 377 -1014 763 -1398 327 -325 694 -548 1136 -689 142 -46
360 -92 525 -113 81 -10 398 -13 1415 -13 l1310 0 67 26 c153 59 277 168 343
299 69 138 65 -47 65 2505 0 2224 1 2311 19 2350 46 101 159 142 259 94 24
-12 54 -37 67 -58 13 -20 676 -1161 1473 -2536 1371 -2366 1452 -2504 1518
-2571 168 -173 400 -213 624 -107 140 66 257 217 289 371 8 38 11 736 11 2400
0 1584 3 2359 10 2384 44 158 253 185 345 44 28 -43 1963 -3379 2694 -4645
172 -298 229 -388 279 -441 162 -175 410 -219 627 -114 128 62 220 164 275
304 l25 65 3 3053 2 3052 445 0 445 0 -3 -3082 c-3 -3418 3 -3123 -67 -3350
-110 -356 -393 -677 -736 -834 -315 -144 -694 -163 -1019 -51 -263 91 -524
283 -671 493 -27 38 -434 732 -904 1542 l-855 1471 -6 -1187 c-5 -1184 -5
-1187 -28 -1286 -127 -561 -527 -962 -1081 -1082 -119 -26 -410 -26 -530 -1
-372 78 -688 288 -884 587 -24 36 -423 719 -887 1518 l-844 1454 -6 -1154 c-4
-799 -9 -1173 -17 -1218 -39 -221 -72 -329 -148 -485 -185 -379 -531 -613
-1007 -680 -85 -12 -327 -15 -1462 -15 -851 0 -1403 4 -1475 10 -1108 99
-2119 703 -2737 1636 -688 1037 -805 2358 -308 3499 253 583 659 1096 1170
1480 554 415 1221 667 1920 724 55 5 409 9 788 10 l687 1 -2 -442z"/>
</g>
</svg>
