<svg width="72" height="52" viewBox="0 0 72 52" fill="none" xmlns="http://www.w3.org/2000/svg">
<path d="M71 51V1H1V35.8126L16.6742 51H71Z" stroke="#231F20" stroke-linecap="square"/>
<path fillRule="evenodd" clipRule="evenodd" d="M46.9054 16.5696C48.1116 16.8829 49.0525 17.7999 49.3787 18.9711C50.2318 22.3122 50.1762 28.629 49.3966 32.0224C49.074 33.1935 48.1295 34.1071 46.9234 34.4238C43.5181 35.2417 28.2664 35.1408 25.0583 34.4238C23.8521 34.1106 22.9112 33.1935 22.585 32.0224C21.7803 28.8379 21.8359 22.1034 22.5671 18.9885C22.8897 17.8173 23.8342 16.9037 25.0404 16.587C29.5926 15.6647 45.2853 15.9623 46.9054 16.5696ZM34 22L41 25.5L34 29V22Z" fill="#231F20"/>
</svg>
